<svg width="224" height="61" viewBox="0 0 224 61" fill="none" xmlns="http://www.w3.org/2000/svg">
<g opacity="0.4">
<mask id="mask0" mask-type="alpha" maskUnits="userSpaceOnUse" x="5" y="-3" width="208" height="64">
<path fill-rule="evenodd" clip-rule="evenodd" d="M108.671 -3H87.6018V61H108.671V-3ZM27.7221 3.78791H54.3353V61H27.7221V3.78791ZM5.54443 10.5758H11.0889V61H5.54443V10.5758ZM114.215 11.5455H125.304V61H114.215V11.5455ZM153.026 10.5758H136.393V61H153.026V10.5758ZM207.361 27.0606H212.906V61H207.361V27.0606ZM179.639 25.1212H157.461V61H179.639V25.1212Z" fill="#C4C4C4"/>
</mask>
<g mask="url(#mask0)">
<path d="M11.5889 15C11.5889 14.7893 11.4567 14.6012 11.2585 14.5297L5.71409 12.5297C5.56088 12.4744 5.39035 12.4972 5.25706 12.5908C5.12377 12.6845 5.04443 12.8371 5.04443 13V60C5.04443 60.2761 5.26829 60.5 5.54443 60.5H11.0889C11.365 60.5 11.5889 60.2761 11.5889 60V15ZM34.1607 12.6584C34.1356 12.6061 34.1016 12.5586 34.0602 12.518L28.0723 6.6431C27.9286 6.50207 27.7143 6.46103 27.5286 6.53898C27.343 6.61692 27.2222 6.79864 27.2222 7V60.0164C27.2222 60.2925 27.446 60.5164 27.7222 60.5164H54.3354C54.6115 60.5164 54.8354 60.2925 54.8354 60.0164V42C54.8354 41.7763 54.6868 41.5798 54.4716 41.5189L49.5527 40.1263L44.3096 36.3064L38.9296 22.5881C38.9282 22.5846 38.9268 22.5811 38.9253 22.5777C38.922 22.5697 38.9185 22.5619 38.9148 22.5541L34.1607 12.6584ZM93.2086 4.67537C93.1785 4.63156 93.1416 4.59282 93.0994 4.56061L87.9049 0.602307C87.7537 0.487102 87.5503 0.467581 87.38 0.551934C87.2096 0.636287 87.1019 0.809925 87.1019 1V60.0164C87.1019 60.2925 87.3257 60.5164 87.6019 60.5164H108.671C108.947 60.5164 109.171 60.2925 109.171 60.0164V18.5C109.171 18.3607 109.113 18.2277 109.01 18.1331L104.002 13.4975C103.933 13.433 103.846 13.3896 103.752 13.3726L98.524 12.4203L93.2086 4.67537ZM114.302 14.8328C114.156 14.8071 114.007 14.8471 113.894 14.9421C113.78 15.0371 113.715 15.1774 113.715 15.3252V60.0164C113.715 60.2925 113.939 60.5164 114.215 60.5164H125.304C125.58 60.5164 125.804 60.2925 125.804 60.0164V17C125.804 16.7476 125.616 16.5348 125.365 16.5038L120.037 15.8438L114.302 14.8328ZM136.69 12.5197C136.538 12.4078 136.336 12.3908 136.167 12.4758C135.999 12.5609 135.893 12.7335 135.893 12.9221V60.0164C135.893 60.2925 136.117 60.5164 136.393 60.5164H153.026C153.302 60.5164 153.526 60.2925 153.526 60.0164V29C153.526 28.912 153.503 28.8256 153.459 28.7495L147.561 18.5619C147.502 18.4603 147.41 18.3827 147.3 18.3426L141.934 16.3881L136.69 12.5197ZM157.919 27.7988C157.824 27.5823 157.59 27.4621 157.359 27.5107C157.127 27.5593 156.962 27.7635 156.962 28V60.0164C156.962 60.2925 157.185 60.5164 157.462 60.5164H179.728C180.004 60.5164 180.228 60.2925 180.228 60.0164V50.9736C180.228 50.7776 180.113 50.5997 179.935 50.5185L174.595 48.0868L169.23 42.2246C169.157 42.144 169.058 42.0898 168.951 42.0703L163.779 41.1283L157.919 27.7988ZM213.406 33C213.406 32.7581 213.233 32.5509 212.994 32.5079L207.45 31.5079C207.304 31.4816 207.154 31.5214 207.041 31.6164C206.927 31.7113 206.861 31.8519 206.861 32V60.0164C206.861 60.2925 207.085 60.5164 207.361 60.5164H212.906C213.182 60.5164 213.406 60.2925 213.406 60.0164V33Z" fill="url(#paint0_linear)" stroke="url(#paint1_linear)" stroke-linejoin="round"/>
</g>
<mask id="mask1" mask-type="alpha" maskUnits="userSpaceOnUse" x="0" y="-1" width="224" height="62">
<path fill-rule="evenodd" clip-rule="evenodd" d="M54.3353 -1H87.6018V61H54.3353V-1ZM27.7221 5.57576H11.0888V61H27.7221V5.57576ZM5.54442 12.1515H0V61H5.54442V12.1515ZM114.215 13.0909H108.671V61H114.215V13.0909ZM125.304 12.1515H136.393V61H125.304V12.1515ZM207.361 28.1212H179.639V61H207.361V28.1212ZM212.906 24.3636H223.994V61H212.906V24.3636ZM157.461 26.2424H153.026V61H157.461V26.2424Z" fill="#C4C4C4"/>
</mask>
<g mask="url(#mask1)">
<path d="M6.04442 13C6.04442 12.8141 5.94126 12.6435 5.77661 12.5572C5.61196 12.4708 5.413 12.483 5.26008 12.5887L-0.284342 16.4219C-0.419394 16.5153 -0.5 16.669 -0.5 16.8332V60.0164C-0.5 60.2925 -0.276142 60.5164 0 60.5164H5.54442C5.82056 60.5164 6.04442 60.2925 6.04442 60.0164V13ZM16.6333 8.4166C16.4926 8.4166 16.3585 8.47584 16.2637 8.5798L10.7193 14.6632C10.6354 14.7553 10.5888 14.8754 10.5888 15V60.0164C10.5888 60.2925 10.8127 60.5164 11.0888 60.5164H27.7221C27.9982 60.5164 28.2221 60.2925 28.2221 60.0164V7C28.2221 6.83982 28.1453 6.68933 28.0157 6.59527C27.886 6.50122 27.7191 6.47498 27.5669 6.5247L21.7735 8.4166H16.6333ZM54.2159 41.5145C53.9924 41.5694 53.8353 41.7699 53.8353 42V60.0164C53.8353 60.2925 54.0592 60.5164 54.3353 60.5164H87.6018C87.8779 60.5164 88.1018 60.2925 88.1018 60.0164V1C88.1018 0.813546 87.9981 0.642582 87.8327 0.55649C87.6673 0.470399 87.4677 0.483483 87.315 0.590434L81.6624 4.54873C81.6388 4.56525 81.6167 4.58376 81.5963 4.60408L76.1972 9.98284L70.8164 12.4194C70.6912 12.4761 70.5948 12.5819 70.55 12.7118L66.4586 24.569L59.7354 40.1568L54.2159 41.5145ZM114.715 15.3271C114.715 15.1489 114.62 14.9841 114.466 14.8946C114.312 14.8052 114.121 14.8046 113.967 14.8932L108.422 18.066C108.267 18.1551 108.171 18.3207 108.171 18.5V60.0164C108.171 60.2925 108.394 60.5164 108.671 60.5164H114.215C114.491 60.5164 114.715 60.2925 114.715 60.0164V15.3271ZM130.953 14.3823L130.946 14.385L125.131 16.5309C124.934 16.6034 124.804 16.7906 124.804 17V60.0164C124.804 60.2925 125.028 60.5164 125.304 60.5164H136.393C136.669 60.5164 136.893 60.2925 136.893 60.0164V13C136.893 12.8378 136.814 12.6858 136.682 12.592C136.549 12.4983 136.38 12.4745 136.227 12.5283L130.953 14.3823ZM157.961 28C157.961 27.7239 157.738 27.5 157.461 27.5H153.026C152.75 27.5 152.526 27.7239 152.526 28V60.0164C152.526 60.2925 152.75 60.5164 153.026 60.5164H157.461C157.738 60.5164 157.961 60.2925 157.961 60.0164V28ZM185.62 48.5119C185.612 48.5142 185.604 48.5166 185.596 48.5193L179.483 50.5249C179.278 50.5923 179.139 50.7839 179.139 51V60C179.139 60.276 179.363 60.4998 179.639 60.5L207.361 60.5164C207.494 60.5165 207.621 60.4638 207.715 60.3701C207.809 60.2763 207.861 60.1491 207.861 60.0164V32C207.861 31.7839 207.722 31.5923 207.517 31.5249C207.312 31.4576 207.086 31.5297 206.958 31.7038L201.828 38.6802L196.508 40.6077C196.426 40.6373 196.353 40.6878 196.297 40.7541L190.934 47.0682L185.62 48.5119ZM212.791 32.5133C212.565 32.5664 212.406 32.768 212.406 33V60.0164C212.406 60.2925 212.63 60.5164 212.906 60.5164H223.994C224.271 60.5164 224.494 60.2925 224.494 60.0164V28.7081C224.494 28.5318 224.402 28.3685 224.25 28.2784C224.098 28.1882 223.911 28.1846 223.756 28.2688L218.351 31.2055L212.791 32.5133Z" fill="url(#paint2_linear)" stroke="url(#paint3_linear)" stroke-linejoin="round"/>
</g>
</g>
<defs>
<linearGradient id="paint0_linear" x1="5.54443" y1="60.0164" x2="5.54443" y2="1" gradientUnits="userSpaceOnUse">
<stop stop-color="#FA4F4F" stop-opacity="0"/>
<stop offset="1" stop-color="#FA4F4F" stop-opacity="0.5"/>
</linearGradient>
<linearGradient id="paint1_linear" x1="109.225" y1="1" x2="109.225" y2="60.0164" gradientUnits="userSpaceOnUse">
<stop stop-color="#F86D6D"/>
<stop offset="1" stop-color="#F86D6D" stop-opacity="0"/>
</linearGradient>
<linearGradient id="paint2_linear" x1="111.997" y1="1" x2="111.997" y2="60.0164" gradientUnits="userSpaceOnUse">
<stop stop-color="#9AC802" stop-opacity="0.5"/>
<stop offset="1" stop-color="#9AC802" stop-opacity="0"/>
</linearGradient>
<linearGradient id="paint3_linear" x1="111.997" y1="1" x2="111.997" y2="60.0164" gradientUnits="userSpaceOnUse">
<stop stop-color="#89C501"/>
<stop offset="1" stop-color="#89C501" stop-opacity="0"/>
</linearGradient>
</defs>
</svg>
