<svg width="81" height="66" viewBox="0 0 81 66" fill="none" xmlns="http://www.w3.org/2000/svg">
<path d="M1 1C1 4 78.9603 6 78.9603 9C78.9603 12 1 14 1 17C1 20 53.5779 22 53.5779 24.875C53.5779 27.75 1 30.125 1 33C1 35.875 30.0085 37 30.0085 41C30.0085 45 1 46 1 49C1 52 55.6176 54.125 55.6176 57.125C55.6176 60.125 1 62.125 1 65" stroke="#9AC802"/>
<path d="M1 1C1 4 78.9603 6 78.9603 9C78.9603 12 1 14 1 17C1 20 53.5779 22 53.5779 24.875C53.5779 27.75 1 30.125 1 33C1 35.875 30.0085 37 30.0085 41C30.0085 45 1 46 1 49C1 52 55.6176 54.125 55.6176 57.125C55.6176 60.125 1 62.125 1 65V49V33V17V1Z" fill="url(#paint0_linear)"/>
<path d="M1 1H81" stroke="#666E79" stroke-opacity="0.5" stroke-dasharray="2 2"/>
<path d="M1 17H81" stroke="#666E79" stroke-opacity="0.5" stroke-dasharray="2 2"/>
<path d="M1 33H81" stroke="#666E79" stroke-opacity="0.5" stroke-dasharray="2 2"/>
<path d="M1 49H81" stroke="#666E79" stroke-opacity="0.5" stroke-dasharray="2 2"/>
<path d="M1 65H81" stroke="#666E79" stroke-opacity="0.5" stroke-dasharray="2 2"/>
<defs>
<linearGradient id="paint0_linear" x1="1" y1="65" x2="78.9603" y2="65" gradientUnits="userSpaceOnUse">
<stop stop-color="#9AC802" stop-opacity="0"/>
<stop offset="1" stop-color="#9AC802" stop-opacity="0.5"/>
</linearGradient>
</defs>
</svg>
