<svg width="201" height="80" viewBox="0 0 201 80" fill="none" xmlns="http://www.w3.org/2000/svg">
<path d="M201 46H1" stroke="#666E79" stroke-opacity="0.5" stroke-dasharray="2 2"/>
<path d="M1 38.6337L5 34.4752L9 36.5545L13 30.3168H17L21 27.7178L25.5 34.4752L29 44.8713L33 59.4257L37 63.5842L41 65.1436L45 63.5842L50 46.9505L53 34.4752L57 31.8762L61 26.1584L65 22L69 26.1584L73 34.4752L77 35.5149L81 40.1931L85 37.0743L89 38.1139L93 38.6337L97 36.5545L101 34.4752L105 38.6337L109 40.7129L113 51.1089L117 50.0693L121 64.6238L125 65.6634L129 71.901L133 74.5L137 72.4208L141 70.8614L145 64.104L149 62.0248L153 54.2277L157 55.7871L161 54.2277L165 51.1089" stroke="#666E79"/>
<path d="M50 46.9505L53 34.4752L57 31.8762L61 26.1584L65 22L69 26.1584L73 34.4752L77 35.5149L81 40.1931L85 37.0743L89 38.1139L93 38.6337L97 36.5545L101 34.4752L105 38.6337L109 40.7129L111.4 46.9505H165V51.1089L161 54.2277L157 55.7871L153 54.2277L149 62.0248L145 64.104L141 70.8614L137 72.4208L133 74.5L129 71.901L125 65.6634L121 64.6238L117 50.0693L113 51.1089L111.4 46.9505H50Z" fill="url(#paint0_linear)"/>
<path d="M50 46.9505L53 34.4752L57 31.8762L61 26.1584L65 22L69 26.1584L73 34.4752L77 35.5149L81 40.1931L85 37.0743L89 38.1139L93 38.6337L97 36.5545L101 34.4752L105 38.6337L109 40.7129L113 51.1089L117 50.0693L121 64.6238L125 65.6634L129 71.901L133 74.5L137 72.4208L141 70.8614L145 64.104L149 62.0248L153 54.2277L157 55.7871L161 54.2277L165 51.1089L168 40.7129" stroke="#9AC802" stroke-linecap="round"/>
<path d="M49 14V76" stroke="#666E79" stroke-opacity="0.5" stroke-dasharray="2 2"/>
<path d="M164 15L168 10L172 15L168 20L164 15Z" fill="#9AC802"/>
<rect x="150" width="36" height="16" rx="2" fill="#9AC802"/>
<g filter="url(#filter0_d)">
<path d="M156.271 7.47998H157.941V8.45557H156.271V10.3584H155.234V8.45557H153.555V7.47998H155.234V5.7002H156.271V7.47998ZM163.056 11H158.754V10.2661L160.885 7.94141C161.193 7.59863 161.411 7.31299 161.54 7.08447C161.672 6.85303 161.738 6.62158 161.738 6.39014C161.738 6.08545 161.651 5.83936 161.479 5.65186C161.309 5.46436 161.079 5.37061 160.789 5.37061C160.443 5.37061 160.175 5.47607 159.984 5.68701C159.794 5.89795 159.699 6.18652 159.699 6.55273H158.631C158.631 6.16309 158.719 5.81299 158.895 5.50244C159.073 5.18896 159.327 4.9458 159.655 4.77295C159.986 4.6001 160.367 4.51367 160.797 4.51367C161.418 4.51367 161.908 4.67041 162.265 4.98389C162.625 5.29443 162.806 5.7251 162.806 6.27588C162.806 6.59521 162.715 6.93066 162.533 7.28223C162.354 7.63086 162.06 8.02783 161.65 8.47314L160.085 10.1475H163.056V11ZM166.761 11H165.697V5.86279L164.128 6.39893V5.49805L166.625 4.57959H166.761V11ZM169.718 9.875C169.917 9.875 170.071 9.93213 170.18 10.0464C170.288 10.1577 170.342 10.2983 170.342 10.4683C170.342 10.6353 170.288 10.7744 170.18 10.8857C170.071 10.9941 169.917 11.0483 169.718 11.0483C169.528 11.0483 169.377 10.9941 169.266 10.8857C169.154 10.7773 169.099 10.6382 169.099 10.4683C169.099 10.2983 169.153 10.1577 169.261 10.0464C169.37 9.93213 169.522 9.875 169.718 9.875ZM171.784 7.82715L172.131 4.60156H175.567V5.52441H173.019L172.843 7.05371C173.139 6.88379 173.473 6.79883 173.845 6.79883C174.454 6.79883 174.927 6.99365 175.264 7.3833C175.604 7.77295 175.774 8.29736 175.774 8.95654C175.774 9.60693 175.586 10.1255 175.211 10.5122C174.836 10.896 174.322 11.0879 173.669 11.0879C173.083 11.0879 172.597 10.9224 172.21 10.5913C171.826 10.2573 171.618 9.81787 171.586 9.27295H172.619C172.66 9.5835 172.771 9.82227 172.953 9.98926C173.134 10.1533 173.372 10.2354 173.665 10.2354C173.993 10.2354 174.248 10.1182 174.429 9.88379C174.614 9.64941 174.706 9.33008 174.706 8.92578C174.706 8.53613 174.605 8.22852 174.403 8.00293C174.201 7.77441 173.922 7.66016 173.568 7.66016C173.375 7.66016 173.21 7.68652 173.076 7.73926C172.941 7.78906 172.794 7.88867 172.636 8.03809L171.784 7.82715ZM176.569 5.83203C176.569 5.44531 176.694 5.12891 176.943 4.88281C177.192 4.63379 177.519 4.50928 177.923 4.50928C178.333 4.50928 178.661 4.63379 178.907 4.88281C179.156 5.12891 179.281 5.45264 179.281 5.854V6.17041C179.281 6.5542 179.156 6.86914 178.907 7.11523C178.661 7.36133 178.336 7.48438 177.932 7.48438C177.536 7.48438 177.209 7.36426 176.952 7.12402C176.697 6.88086 176.569 6.5542 176.569 6.14404V5.83203ZM177.316 6.17041C177.316 6.37256 177.372 6.53662 177.483 6.6626C177.598 6.78564 177.747 6.84717 177.932 6.84717C178.113 6.84717 178.26 6.78564 178.371 6.6626C178.482 6.53662 178.538 6.3667 178.538 6.15283V5.83203C178.538 5.62988 178.481 5.46582 178.367 5.33984C178.255 5.21387 178.107 5.15088 177.923 5.15088C177.738 5.15088 177.59 5.21533 177.479 5.34424C177.371 5.47021 177.316 5.63721 177.316 5.84521V6.17041ZM179.646 9.43115C179.646 9.03857 179.773 8.7207 180.028 8.47754C180.283 8.23438 180.608 8.11279 181.003 8.11279C181.402 8.11279 181.727 8.23438 181.979 8.47754C182.234 8.7207 182.361 9.04883 182.361 9.46191V9.77393C182.361 10.1548 182.238 10.4697 181.992 10.7188C181.749 10.9648 181.422 11.0879 181.012 11.0879C180.602 11.0879 180.271 10.9663 180.019 10.7231C179.77 10.4771 179.646 10.1533 179.646 9.75195V9.43115ZM180.393 9.77393C180.393 9.97314 180.45 10.1372 180.564 10.2661C180.681 10.3921 180.831 10.4551 181.012 10.4551C181.2 10.4551 181.346 10.395 181.452 10.2749C181.56 10.1519 181.614 9.98047 181.614 9.76074V9.43115C181.614 9.22607 181.557 9.06201 181.443 8.93896C181.329 8.81592 181.182 8.75439 181.003 8.75439C180.822 8.75439 180.674 8.81592 180.56 8.93896C180.448 9.06201 180.393 9.23193 180.393 9.44873V9.77393ZM178.151 10.521L177.602 10.2046L180.727 5.20361L181.276 5.52002L178.151 10.521Z" fill="white"/>
</g>
<circle cx="168" cy="40" r="2" fill="#9AC802"/>
<circle cx="50" cy="47" r="1" fill="#9AC802"/>
<circle cx="168" cy="40" r="1" fill="white"/>
<defs>
<filter id="filter0_d" x="151.555" y="2.50928" width="32.8062" height="10.5786" filterUnits="userSpaceOnUse" color-interpolation-filters="sRGB">
<feFlood flood-opacity="0" result="BackgroundImageFix"/>
<feColorMatrix in="SourceAlpha" type="matrix" values="0 0 0 0 0 0 0 0 0 0 0 0 0 0 0 0 0 0 127 0"/>
<feOffset/>
<feGaussianBlur stdDeviation="1"/>
<feColorMatrix type="matrix" values="0 0 0 0 0 0 0 0 0 0 0 0 0 0 0 0 0 0 0.15 0"/>
<feBlend mode="normal" in2="BackgroundImageFix" result="effect1_dropShadow"/>
<feBlend mode="normal" in="SourceGraphic" in2="effect1_dropShadow" result="shape"/>
</filter>
<linearGradient id="paint0_linear" x1="107.5" y1="22" x2="107.5" y2="74.5" gradientUnits="userSpaceOnUse">
<stop stop-color="#9AC802" stop-opacity="0.5"/>
<stop offset="0.515625" stop-color="#9AC802" stop-opacity="0"/>
<stop offset="1" stop-color="#9AC802" stop-opacity="0.5"/>
</linearGradient>
</defs>
</svg>
