<svg width="18" height="18" viewBox="0 0 18 18" fill="none" xmlns="http://www.w3.org/2000/svg">
<path fill-rule="evenodd" clip-rule="evenodd" d="M17.4777 0.852592C17.4448 0.745493 17.3758 0.64878 17.2749 0.582354C17.1554 0.503693 17.0145 0.482938 16.8855 0.513277C16.8499 0.521644 16.8152 0.533896 16.782 0.54989L10.2905 3.54602C10.0397 3.66174 9.9303 3.95881 10.046 4.20953C10.1617 4.46026 10.4588 4.5697 10.7095 4.45398L15.6194 2.18785L8.62606 12.8121L5.17019 10.3329C5.05767 10.2521 4.91671 10.2217 4.78091 10.2488C4.64511 10.2759 4.52662 10.3581 4.45369 10.4758L0.574906 16.7367C0.429475 16.9714 0.501878 17.2796 0.736622 17.425C0.971365 17.5705 1.27956 17.4981 1.42499 17.2633L5.02201 11.4573L8.46607 13.928C8.57665 14.0073 8.71478 14.0382 8.8486 14.0134C8.98241 13.9886 9.10034 13.9103 9.17516 13.7966L16.5 2.66895V8C16.5 8.27614 16.7238 8.5 17 8.5C17.2761 8.5 17.5 8.27614 17.5 8V1.00734V1C17.5 0.982006 17.499 0.964141 17.4971 0.946472" fill="#9AC802"/>
</svg>
